<svg width="900" height="640" viewBox="0 0 900 640" fill="none" xmlns="http://www.w3.org/2000/svg" role="img" aria-labelledby="title desc">
  <title id="title">Previa visual de uma landing page profissional</title>
  <desc id="desc">Ilustracao de uma pagina web com chamada principal, cards de servico e contato pelo WhatsApp.</desc>
  <rect width="900" height="640" rx="34" fill="#FFF7EC"/>
  <circle cx="764" cy="104" r="92" fill="#E2A85E" fill-opacity="0.2"/>
  <circle cx="118" cy="546" r="118" fill="#0F766E" fill-opacity="0.13"/>
  <rect x="84" y="80" width="732" height="480" rx="24" fill="#F7F2EB" stroke="#171412" stroke-opacity="0.14" stroke-width="2"/>
  <rect x="84" y="80" width="732" height="58" rx="24" fill="#171412"/>
  <circle cx="124" cy="109" r="7" fill="#F06449"/>
  <circle cx="150" cy="109" r="7" fill="#E2A85E"/>
  <circle cx="176" cy="109" r="7" fill="#0F766E"/>
  <rect x="622" y="101" width="146" height="16" rx="8" fill="#F7F2EB" fill-opacity="0.35"/>
  <rect x="132" y="182" width="276" height="28" rx="14" fill="#0F766E" fill-opacity="0.16"/>
  <rect x="132" y="232" width="360" height="32" rx="16" fill="#171412"/>
  <rect x="132" y="282" width="318" height="16" rx="8" fill="#625A52" fill-opacity="0.45"/>
  <rect x="132" y="310" width="250" height="16" rx="8" fill="#625A52" fill-opacity="0.35"/>
  <rect x="132" y="354" width="176" height="48" rx="12" fill="#0F766E"/>
  <rect x="324" y="354" width="142" height="48" rx="12" fill="#FFFFFF" stroke="#171412" stroke-opacity="0.12"/>
  <rect x="548" y="178" width="186" height="244" rx="20" fill="#FFFDF8" stroke="#171412" stroke-opacity="0.12" stroke-width="2"/>
  <rect x="576" y="210" width="130" height="92" rx="18" fill="#0F766E" fill-opacity="0.14"/>
  <path d="M616 266L640 240L670 278" stroke="#0F766E" stroke-width="10" stroke-linecap="round" stroke-linejoin="round"/>
  <rect x="576" y="330" width="116" height="14" rx="7" fill="#171412" fill-opacity="0.78"/>
  <rect x="576" y="358" width="88" height="12" rx="6" fill="#625A52" fill-opacity="0.44"/>
  <rect x="132" y="456" width="176" height="54" rx="14" fill="#FFFDF8" stroke="#171412" stroke-opacity="0.1"/>
  <rect x="332" y="456" width="176" height="54" rx="14" fill="#FFFDF8" stroke="#171412" stroke-opacity="0.1"/>
  <rect x="532" y="456" width="176" height="54" rx="14" fill="#FFFDF8" stroke="#171412" stroke-opacity="0.1"/>
  <rect x="154" y="476" width="88" height="12" rx="6" fill="#0F766E" fill-opacity="0.7"/>
  <rect x="354" y="476" width="92" height="12" rx="6" fill="#B97725" fill-opacity="0.65"/>
  <rect x="554" y="476" width="102" height="12" rx="6" fill="#0F766E" fill-opacity="0.7"/>
  <g filter="url(#shadow)">
    <rect x="586" y="420" width="230" height="96" rx="22" fill="#0F766E"/>
    <circle cx="628" cy="468" r="18" fill="#FFFFFF" fill-opacity="0.95"/>
    <rect x="664" y="446" width="100" height="14" rx="7" fill="#FFFFFF" fill-opacity="0.94"/>
    <rect x="664" y="474" width="72" height="12" rx="6" fill="#FFFFFF" fill-opacity="0.62"/>
  </g>
  <defs>
    <filter id="shadow" x="546" y="390" width="310" height="176" filterUnits="userSpaceOnUse" color-interpolation-filters="sRGB">
      <feFlood flood-opacity="0" result="BackgroundImageFix"/>
      <feColorMatrix in="SourceAlpha" type="matrix" values="0 0 0 0 0 0 0 0 0 0 0 0 0 0 0 0 0 0 127 0" result="hardAlpha"/>
      <feOffset dy="10"/>
      <feGaussianBlur stdDeviation="15"/>
      <feComposite in2="hardAlpha" operator="out"/>
      <feColorMatrix type="matrix" values="0 0 0 0 0.0588235 0 0 0 0 0.462745 0 0 0 0 0.431373 0 0 0 0.22 0"/>
      <feBlend mode="normal" in2="BackgroundImageFix" result="effect1_dropShadow_1"/>
      <feBlend mode="normal" in="SourceGraphic" in2="effect1_dropShadow_1" result="shape"/>
    </filter>
  </defs>
</svg>
